<svg width="170px" height="61px" viewBox="0 0 170 61" version="1.1" xmlns="http://www.w3.org/2000/svg" xmlns:xlink="http://www.w3.org/1999/xlink">
    <defs>
        <polygon id="path-1225" points="0.1146461 0.147327033 10.4109662 0.147327033 10.4109662 19.3709401 0.1146461 19.3709401"></polygon>
    </defs>
    <g id="Desk144025" stroke="none" stroke-width="1" fill="none" fill-rule="evenodd">
        <g id="1.-Home-25" transform="translate(-135.000000, -6533.000000)">
            <g id="9.Rodapé25" transform="translate(0.000000, 6192.000000)">
                <g id="ConductorLogo225" transform="translate(135.000000, 341.000000)">
                    <g id="Group-288" transform="translate(0.000000, 0.677778)">
                        <path d="M22.5352317,7.27267549 C24.3019255,6.39037689 26.3318324,5.94873247 28.6241607,5.94873247 C30.9168847,5.94873247 32.9171059,6.34165737 34.6254179,7.12750717 C36.3333341,7.90761361 37.1928335,8.90715593 37.2039162,10.1253419 C37.2039162,11.3439241 36.3359069,12.4127828 34.6002841,13.3321161 C32.8646612,14.2512514 30.8163492,14.7132947 28.455546,14.71884 C26.1052317,14.71884 24.089376,14.3082889 22.4075832,13.4873848 C20.7257905,12.6660847 19.885092,11.6459455 19.885092,10.4263731 C19.885092,9.20660273 20.7683399,8.15537018 22.5352317,7.27267549" id="Fill-155" fill="#F18670"></path>
                        <path d="M23.1710792,0.34644331 C24.7507532,0.115520713 26.5659336,5.94140473e-05 28.6158289,5.94140473e-05 C30.665922,5.94140473e-05 32.4545832,0.103043763 33.9820105,0.308616367 C35.5092398,0.512604596 36.2777031,0.774026404 36.2875984,1.09288179 C36.2875984,1.41173718 35.5116147,1.6913793 33.9596473,1.93180814 C32.407482,2.17243503 30.5760733,2.29324359 28.4648277,2.29482797 C26.3632794,2.29482797 24.5607648,2.18728854 23.0568882,1.97240774 C21.5532095,1.75772498 20.8013702,1.49055982 20.8013702,1.17150638 C20.8013702,0.852452947 21.5912072,0.577365907 23.1710792,0.34644331" id="Fill-365" fill="#F18670"></path>
                        <path d="M19.8850326,49.4353591 C19.8850326,48.2155887 20.725929,47.1952514 22.4075239,46.3741493 C24.0893166,45.5530472 26.1051723,45.1426941 28.4554866,45.1426941 C30.8164878,45.1482395 32.8646019,45.6102827 34.6004226,46.5296161 C36.3360454,47.4487514 37.2038568,48.5176101 37.2038568,49.7361922 C37.1927742,50.9545763 36.3334726,51.9539205 34.6253586,52.734027 C32.9172445,53.5198768 30.9168254,53.9126036 28.6242992,53.9126036 C26.331773,53.9126036 24.302064,53.4713553 22.5351723,52.5888587 C20.7682806,51.706164 19.8850326,50.6551295 19.8850326,49.4353591" id="Fill-55" fill="#F18670"></path>
                        <path d="M20.8013108,58.6899882 C20.8013108,58.3709347 21.5531502,58.1037696 23.0570268,57.8890868 C24.5607055,57.674206 26.36322,57.5668646 28.4649662,57.5668646 C30.576014,57.5682509 32.4074226,57.6890595 33.9595879,57.9296864 C35.5115553,58.1701152 36.287539,58.4497574 36.287539,58.7686127 C36.2776438,59.0874681 35.5091804,59.3488899 33.9819511,59.5530762 C32.4545239,59.7586488 30.6658626,59.8614351 28.6157695,59.8614351 C26.5658743,59.8614351 24.7508917,59.7459738 23.1710198,59.5150512 C21.5911478,59.2841286 20.8013108,59.0090416 20.8013108,58.6899882" id="Fill-75" fill="#F18670"></path>
                        <path d="M38.4188719,30.4071984 C38.4188719,35.8667552 33.9622596,40.3265717 28.5066251,40.3265717 C23.0509907,40.3265717 18.5943783,35.8667552 18.5943783,30.4071984 C18.5943783,24.9478397 23.0509907,20.4878252 28.5066251,20.4878252 C33.9622596,20.4878252 38.4188719,24.9478397 38.4188719,30.4071984" id="Fill-95" fill="#F18670"></path>
                        <path d="M9.83534109,40.3265717 C4.41829802,40.3265717 7.91618161e-05,35.9049783 7.91618161e-05,30.4071984 C7.91618161e-05,24.9094186 4.41829802,20.4878252 9.87373458,20.4878252 C12.6398463,20.4878252 15.0604168,21.6412499 16.9812782,23.5252693 L14.6376927,26.4088311 C13.1393574,24.9478397 11.4490547,24.3325082 9.87373458,24.3325082 C6.56971828,24.3325082 3.842,27.0621875 3.842,30.3687773 C3.842,33.6753671 6.56971828,36.4434676 9.87373458,36.4434676 C11.4490547,36.4434676 13.1777509,35.8283341 14.6376927,34.2905005 L16.9812782,37.2124834 C15.0604168,39.0578837 12.7168312,40.3265717 9.83534109,40.3265717" id="Fill-115" fill="#FFFFFF"></path>
                        <path d="M58.0883271,28.6388977 L58.0883271,40.0190644 L54.2464063,40.0190644 L54.2464063,28.6388977 C54.2464063,26.2550081 52.2869534,24.3325676 49.9435658,24.3325676 C47.5229953,24.3325676 45.6021339,26.2550081 45.6021339,28.6388977 L45.6021339,40.0190644 L41.760213,40.0190644 L41.760213,20.7954513 L44.5530419,20.7954513 L44.948851,22.4487462 C46.3320058,21.2182813 48.1762782,20.4878846 50.0971397,20.4878846 C54.553752,20.4878846 58.0883271,24.1402641 58.0883271,28.6388977" id="Fill-153" fill="#FFFFFF"></path>
                        <path d="M76.6827648,30.4071984 C76.6827648,27.0621875 73.9164552,24.3711273 70.6508324,24.3711273 C67.3084226,24.3711273 64.6190978,27.0621875 64.6190978,30.4071984 C64.6190978,33.7135901 67.3084226,36.4050465 70.6508324,36.4050465 C73.9164552,36.4050465 76.6827648,33.7135901 76.6827648,30.4071984 M76.6443714,22.7946746 L76.6443714,13.1060259 L80.4862922,13.1060259 L80.4862922,40.0190049 L77.6164785,40.0190049 L77.2206694,37.5968923 C75.5301688,39.2499891 73.1481898,40.3265717 70.6124389,40.3265717 C65.1186088,40.3265717 60.70039,35.8665572 60.70039,30.4071984 C60.70039,24.9094186 65.1186088,20.4878252 70.6124389,20.4878252 C72.917631,20.4878252 75.0690512,21.3723023 76.6443714,22.7946746" id="Fill-156" fill="#FFFFFF"></path>
                        <path d="M92.5871059,40.3265717 C88.092298,40.3265717 84.4423446,36.6741921 84.4423446,32.1759546 L84.4423446,20.7955899 L88.2458719,20.7955899 L88.2458719,32.1759546 C88.2458719,34.5210271 90.2051269,36.4820867 92.5871059,36.4820867 C94.9692829,36.4820867 96.8901444,34.5210271 96.8901444,32.1759546 L96.8901444,20.7955899 L100.732065,20.7955899 L100.732065,32.1759546 C100.732065,36.6741921 97.0823097,40.3265717 92.5871059,40.3265717" id="Fill-175" fill="#FFFFFF"></path>
                        <path d="M113.793666,40.3265717 C108.376623,40.3265717 103.958404,35.9049783 103.958404,30.4071984 C103.958404,24.9094186 108.376623,20.4878252 113.832059,20.4878252 C116.598369,20.4878252 119.018742,21.6412499 120.939603,23.5252693 L118.596215,26.4088311 C117.09788,24.9478397 115.40738,24.3325082 113.832059,24.3325082 C110.528241,24.3325082 107.800325,27.0621875 107.800325,30.3687773 C107.800325,33.6753671 110.528241,36.4434676 113.832059,36.4434676 C115.40738,36.4434676 117.136274,35.8283341 118.596215,34.2905005 L120.939603,37.2124834 C119.018742,39.0578837 116.675354,40.3265717 113.793666,40.3265717" id="Fill-195" fill="#FFFFFF"></path>
                        <path d="M124.281558,36.6522485 L124.281558,14.6823202 L128.123478,14.6823202 L128.123478,20.7956295 L134.424165,20.7956295 L134.424165,24.1790615 L128.123478,24.1790615 L128.123478,36.1359405 L134.347378,36.1359405 L134.347378,40.0190446 L127.645935,40.0190446 C125.787809,40.0190446 124.281558,38.5117102 124.281558,36.6522485" id="Fill-215" fill="#FFFFFF"></path>
                        <path d="M140.263398,30.4071984 C140.263398,33.7522093 142.990919,36.4434676 146.333526,36.4434676 C149.675936,36.4434676 152.327065,33.7522093 152.327065,30.4071984 C152.327065,27.0621875 149.675936,24.3711273 146.333526,24.3711273 C142.990919,24.3711273 140.263398,27.0621875 140.263398,30.4071984 M156.245773,30.4071984 C156.245773,35.8665572 151.789161,40.3265717 146.333526,40.3265717 C140.877892,40.3265717 136.421279,35.8665572 136.421279,30.4071984 C136.421279,24.9478397 140.877892,20.4878252 146.333526,20.4878252 C151.789161,20.4878252 156.245773,24.9478397 156.245773,30.4071984" id="Fill-23" fill="#FFFFFF"></path>
                        <g id="Group-2775" transform="translate(159.511059, 20.648164)">
                            <mask id="mask-225" fill="white">
                                <use xlink:href="#path-1225"></use>
                            </mask>
                            <g id="Clip-2665"></g>
                            <path d="M10.4110256,3.83812765 L8.25960536,3.83812765 C5.83923283,3.83812765 3.95656694,5.37615929 3.95656694,7.79827196 L3.95656694,19.3709401 L0.1146461,19.3709401 L0.1146461,0.147327033 L2.86927939,0.147327033 L3.26508847,1.76200279 C4.30250407,0.724039386 5.95441327,0.147327033 7.79868568,0.147327033 L10.4110256,0.147327033 L10.4110256,3.83812765 Z" id="Fill-2535" fill="#FFFFFF" mask="url(#mask-225)"></path>
                        </g>
                    </g>
                </g>
            </g>
        </g>
    </g>
</svg>