<?xml version="1.0" encoding="utf-8"?>
<!-- Generator: Adobe Illustrator 21.0.0, SVG Export Plug-In . SVG Version: 6.00 Build 0)  -->
<svg version="1.1" id="Calque_1" xmlns="http://www.w3.org/2000/svg" xmlns:xlink="http://www.w3.org/1999/xlink" x="0px" y="0px"
	 viewBox="0 0 595.3 213.4" style="enable-background:new 0 0 595.3 213.4;" xml:space="preserve">
<style type="text/css">
	.st0{fill:#A9A3A5;}
	.st1{fill:#FFFFFF;}
</style>
<g>
	<rect x="24.8" y="72.1" class="st0" width="103.1" height="27.8"/>
	<rect x="24.5" y="17.2" class="st0" width="139.5" height="27.9"/>
	<polygon class="st0" points="24.5,127.5 24.5,155.3 153.1,155.3 177,127.5 142.2,127.5 	"/>
</g>
<g>
	<path class="st1" d="M211,19.8c-5.7,1.7-10.5,4.2-14.2,7.3c-3.8,3.2-6.6,7.1-8.3,11.6c-1.7,4.3-2.5,9.1-2.5,14.2v11.5
		c0,5.2,0.8,10,2.5,14.2c1.7,4.5,4.5,8.4,8.3,11.6c3.7,3.1,8.5,5.6,14.2,7.3c5.5,1.6,12.2,2.5,20,2.5h76.1c11.8,0,11.8,5.1,11.8,7.6
		V120c0,2.5,0,7.6-11.8,7.6H193.5l-21.9,27.8H307c7.7,0,14.5-0.8,20-2.5c5.7-1.7,10.5-4.1,14.2-7.3c3.8-3.2,6.6-7.1,8.3-11.6
		c1.7-4.3,2.5-9.1,2.5-14.2v-12c0-5.2-0.8-10-2.5-14.2c-1.7-4.5-4.5-8.4-8.3-11.6c-3.7-3.1-8.5-5.6-14.2-7.3
		c-5.5-1.6-12.3-2.5-20-2.5h-76c-11.8,0-11.8-5.1-11.8-7.6V52.7c0-2.5,0-7.6,11.8-7.6h121.5V17.3H231
		C223.3,17.3,216.6,18.2,211,19.8z"/>
	<rect x="366.4" y="56.3" class="st1" width="33.1" height="99"/>
	<rect x="366.4" y="17.2" class="st1" width="33.1" height="27.5"/>
	<path class="st1" d="M572,72.1H469.3v27.8h69.6v23.6c0,1.4-3.6,4.1-17.3,4.1h-57.1c-12.8,0-17.3-2.4-17.3-4.5V49.6
		c0-2.1,4.5-4.5,17.3-4.5H570V17.3H464.5C431,17.3,414,28.2,414,49.6v73.5c0,21.4,17,32.3,50.5,32.3h57.1
		c33.5,0,50.4-10.7,50.4-31.9V72.1z"/>
</g>
<g>
	<g>
		<path class="st1" d="M25.9,190.7c0.1,0.9,0.3,1.7,0.6,2.3c0.3,0.6,0.7,1.1,1.3,1.5c0.5,0.4,1.1,0.7,1.8,0.9
			c0.7,0.2,1.4,0.3,2.2,0.3c0.9,0,1.7-0.1,2.3-0.3c0.7-0.2,1.2-0.5,1.6-0.9c0.4-0.4,0.7-0.8,0.9-1.3s0.3-1,0.3-1.6
			c0-0.8-0.2-1.4-0.5-1.9c-0.4-0.5-0.8-0.9-1.4-1.2c-0.6-0.3-1.2-0.6-2-0.7c-0.7-0.2-1.5-0.4-2.3-0.5c-0.8-0.2-1.5-0.4-2.3-0.6
			c-0.7-0.2-1.4-0.6-2-1s-1-0.9-1.4-1.6c-0.4-0.6-0.5-1.5-0.5-2.4c0-0.7,0.1-1.4,0.4-2c0.3-0.7,0.7-1.2,1.3-1.7
			c0.6-0.5,1.3-0.9,2.1-1.2c0.9-0.3,1.8-0.4,3-0.4c1.1,0,2.1,0.2,3,0.5c0.8,0.3,1.6,0.8,2.1,1.3c0.6,0.6,1,1.2,1.3,1.9
			s0.4,1.5,0.4,2.3h-1.8c0-0.8-0.1-1.4-0.4-2c-0.3-0.6-0.6-1-1.1-1.4s-1-0.6-1.6-0.8s-1.2-0.3-1.8-0.3c-1,0-1.8,0.1-2.4,0.4
			c-0.7,0.3-1.2,0.6-1.6,1s-0.7,0.9-0.8,1.4c-0.1,0.5-0.2,1-0.1,1.6c0.1,0.7,0.4,1.2,0.8,1.6c0.4,0.4,0.9,0.7,1.5,1s1.3,0.5,2,0.6
			c0.7,0.2,1.5,0.3,2.2,0.5s1.5,0.4,2.2,0.6c0.7,0.2,1.3,0.6,1.9,1c0.5,0.4,1,0.9,1.3,1.6c0.3,0.6,0.5,1.5,0.5,2.4
			c0,1.9-0.6,3.3-1.9,4.3c-1.3,1-3.1,1.5-5.4,1.5c-1,0-2-0.1-2.9-0.4c-0.9-0.3-1.7-0.7-2.3-1.2s-1.2-1.2-1.5-2
			c-0.4-0.8-0.5-1.8-0.5-2.9h1.5V190.7z"/>
		<path class="st1" d="M60.6,197.1c-0.9,0-1.8-0.2-2.6-0.5s-1.5-0.8-2.1-1.4c-0.6-0.6-1.1-1.4-1.4-2.4c-0.4-1-0.5-2.1-0.5-3.3
			c0-1.1,0.1-2.1,0.4-3c0.3-0.9,0.7-1.7,1.3-2.4s1.3-1.2,2.1-1.6c0.8-0.4,1.8-0.6,2.9-0.6c1.1,0,2.1,0.2,3,0.6
			c0.8,0.4,1.5,0.9,2.1,1.6c0.6,0.7,1,1.5,1.2,2.4c0.3,0.9,0.4,1.9,0.4,3c0,1.2-0.2,2.2-0.5,3.1c-0.3,0.9-0.8,1.7-1.4,2.4
			s-1.3,1.2-2.1,1.6C62.5,196.9,61.6,197.1,60.6,197.1z M65.5,189.4c0-0.9-0.1-1.7-0.3-2.4c-0.2-0.7-0.5-1.4-0.9-1.9s-0.9-1-1.5-1.3
			s-1.4-0.5-2.3-0.5c-0.9,0-1.6,0.2-2.3,0.5c-0.6,0.3-1.1,0.8-1.5,1.4c-0.4,0.6-0.7,1.2-0.9,2s-0.3,1.5-0.3,2.3
			c0,0.9,0.1,1.7,0.3,2.5s0.5,1.4,0.9,1.9s0.9,1,1.5,1.3s1.3,0.4,2.1,0.4c0.9,0,1.6-0.2,2.3-0.5c0.6-0.3,1.1-0.8,1.5-1.4
			c0.4-0.6,0.7-1.2,0.9-2C65.4,191,65.5,190.2,65.5,189.4z"/>
		<path class="st1" d="M81.8,183.6v-1.4H84v-2.3c0-1.2,0.2-2.1,0.7-2.7c0.5-0.7,1.3-1,2.4-1c0.3,0,0.5,0,0.7,0s0.4,0,0.7,0.1v1.5
			c-0.4-0.1-0.7-0.1-1-0.1c-0.4,0-0.8,0.1-1,0.2c-0.2,0.2-0.4,0.4-0.5,0.6c-0.1,0.3-0.2,0.6-0.2,0.9c0,0.3,0,0.7,0,1v1.8h2.8v1.4
			h-2.8v13.1h-1.7v-13.1H81.8z"/>
		<path class="st1" d="M109,196.7c-0.2,0-0.5,0.1-0.8,0.2c-0.3,0.1-0.7,0.1-1.1,0.1c-0.8,0-1.5-0.2-1.9-0.6
			c-0.4-0.4-0.7-1.2-0.7-2.3v-10.6h-2v-1.4h2v-4h1.7v4h2.7v1.4h-2.7v9.9c0,0.4,0,0.7,0,0.9c0,0.3,0.1,0.5,0.2,0.6
			c0.1,0.2,0.2,0.3,0.4,0.4c0.2,0.1,0.5,0.1,0.8,0.1c0.2,0,0.5,0,0.7-0.1c0.2,0,0.5-0.1,0.7-0.1C109,195.2,109,196.7,109,196.7z"/>
		<path class="st1" d="M136.8,194.5l3.8-12.3h1.7l-4.7,14.5h-1.8l-3.2-12.2h-0.1l-3.2,12.2h-2l-4.4-14.5h1.7l3.8,12.4l3.4-12.4h1.9
			L136.8,194.5z"/>
		<path class="st1" d="M164.3,188.2c0.3,0,0.7-0.1,1.1-0.2c0.4-0.1,0.8-0.2,1.1-0.3s0.5-0.3,0.5-0.7c0.1-0.3,0.1-0.6,0.1-0.9
			c0-0.9-0.3-1.6-0.8-2.1s-1.5-0.8-2.8-0.8c-0.6,0-1.1,0.1-1.6,0.2c-0.5,0.1-0.9,0.3-1.3,0.5c-0.4,0.3-0.7,0.6-0.9,1
			s-0.4,0.9-0.5,1.6h-1.7c0.1-0.9,0.3-1.6,0.6-2.2c0.3-0.6,0.8-1.1,1.3-1.5s1.1-0.7,1.8-0.8c0.7-0.2,1.4-0.3,2.2-0.3
			c0.7,0,1.4,0.1,2.1,0.2c0.6,0.2,1.2,0.4,1.7,0.8c0.5,0.3,0.8,0.8,1.1,1.4c0.3,0.6,0.4,1.3,0.4,2.1v7.9c0,0.7,0.1,1.1,0.3,1.2
			c0.2,0.2,0.7,0.1,1.4-0.1v1.3c-0.1,0-0.3,0.1-0.6,0.2c-0.3,0.1-0.5,0.1-0.7,0.1c-0.3,0-0.5,0-0.8-0.1c-0.3,0-0.5-0.1-0.7-0.3
			c-0.2-0.1-0.3-0.3-0.4-0.5c-0.1-0.2-0.2-0.4-0.2-0.6c0-0.2-0.1-0.5-0.1-0.7c-0.7,0.8-1.5,1.4-2.4,1.8c-0.9,0.4-1.9,0.6-3,0.6
			c-0.6,0-1.2-0.1-1.8-0.3s-1.1-0.4-1.6-0.8c-0.4-0.4-0.8-0.8-1.1-1.3s-0.4-1.1-0.4-1.8c0-2.5,1.7-3.9,5.1-4.4L164.3,188.2z
			 M167.1,189.1c-0.7,0.3-1.4,0.5-2.2,0.6c-0.7,0.1-1.5,0.2-2.2,0.2c-1.3,0.1-2.3,0.4-3,0.9s-1.1,1.2-1.1,2.2c0,0.4,0.1,0.8,0.3,1.2
			c0.2,0.3,0.4,0.6,0.7,0.8s0.6,0.4,1,0.5s0.8,0.2,1.2,0.2c0.7,0,1.3-0.1,2-0.3c0.6-0.2,1.2-0.4,1.7-0.8c0.5-0.3,0.9-0.8,1.2-1.3
			s0.4-1.2,0.4-1.9L167.1,189.1L167.1,189.1z"/>
		<path class="st1" d="M187.8,196.7h-1.7v-14.5h1.7v2.7h0.1c0.5-1.2,1.1-2,1.8-2.4c0.7-0.5,1.7-0.7,2.9-0.7v1.8
			c-1,0-1.7,0.1-2.4,0.4c-0.6,0.3-1.1,0.7-1.5,1.3c-0.4,0.5-0.6,1.2-0.8,1.9c-0.1,0.7-0.2,1.5-0.2,2.3L187.8,196.7L187.8,196.7z"/>
		<path class="st1" d="M208.8,189.8c0,0.8,0.1,1.5,0.3,2.2s0.5,1.3,0.9,1.8s0.9,0.9,1.5,1.2s1.3,0.5,2.1,0.5c1.1,0,2-0.3,2.8-0.9
			c0.8-0.6,1.3-1.4,1.6-2.5h1.9c-0.2,0.7-0.5,1.3-0.8,1.9c-0.3,0.6-0.8,1.1-1.3,1.5s-1.1,0.8-1.8,1s-1.5,0.4-2.4,0.4
			c-1.2,0-2.2-0.2-3-0.6c-0.8-0.4-1.5-0.9-2.1-1.6c-0.5-0.7-0.9-1.5-1.2-2.4s-0.4-1.9-0.4-3s0.2-2.1,0.5-3s0.7-1.7,1.3-2.4
			s1.3-1.2,2.1-1.7c0.8-0.4,1.8-0.6,2.8-0.6c2,0,3.6,0.7,4.7,2.1c1.1,1.4,1.7,3.4,1.7,6h-11.2V189.8z M218.2,188.4
			c0-0.7-0.1-1.4-0.3-2s-0.5-1.2-0.9-1.6c-0.4-0.5-0.9-0.8-1.4-1.1c-0.6-0.3-1.2-0.4-2-0.4c-0.7,0-1.4,0.1-2,0.4
			c-0.6,0.3-1.1,0.7-1.5,1.1c-0.4,0.5-0.7,1-1,1.6c-0.2,0.6-0.4,1.3-0.5,2H218.2z"/>
		<path class="st1" d="M268.5,191.5c0.4-0.6,0.6-1.2,0.7-1.9s0.2-1.3,0.2-2h1.7c0,0.9-0.2,1.8-0.4,2.7c-0.2,0.9-0.5,1.7-1,2.5
			l3.3,3.9h-2.3l-2-2.4c-0.9,1-1.8,1.8-2.8,2.2s-2.2,0.7-3.5,0.7c-0.9,0-1.7-0.1-2.5-0.4c-0.8-0.3-1.4-0.7-2-1.2s-1-1.2-1.3-1.9
			s-0.5-1.6-0.5-2.4c0-0.7,0.1-1.4,0.4-2.1c0.3-0.6,0.6-1.2,1-1.7s0.9-1,1.5-1.4s1.2-0.8,1.8-1c-0.5-0.6-1-1.3-1.5-2.1
			c-0.4-0.7-0.7-1.6-0.7-2.4c0-0.6,0.1-1.2,0.4-1.7c0.2-0.5,0.6-0.9,1-1.2s0.9-0.6,1.4-0.8s1.1-0.3,1.8-0.3c0.6,0,1.2,0.1,1.7,0.3
			s1,0.5,1.3,0.8c0.4,0.4,0.7,0.8,0.9,1.2c0.2,0.5,0.3,1,0.3,1.5c0,0.7-0.1,1.3-0.3,1.7c-0.2,0.5-0.5,0.9-0.9,1.3
			c-0.4,0.4-0.8,0.7-1.3,1s-1,0.6-1.5,1L268.5,191.5z M261.8,186.2c-0.6,0.3-1.1,0.6-1.6,0.9c-0.5,0.4-0.9,0.8-1.2,1.2
			c-0.3,0.4-0.6,0.9-0.8,1.4c-0.2,0.5-0.3,1-0.3,1.6c0,0.7,0.1,1.3,0.3,1.8c0.2,0.5,0.6,1,1,1.4s0.9,0.7,1.4,0.9s1.2,0.3,1.8,0.3
			c1.1,0,2-0.2,2.9-0.7c0.8-0.5,1.6-1.1,2.3-1.9L261.8,186.2z M265.4,181.6c0.2-0.4,0.2-0.8,0.2-1.2s-0.2-0.8-0.4-1.1
			c-0.2-0.3-0.5-0.6-0.9-0.9c-0.4-0.2-0.8-0.3-1.3-0.3c-0.4,0-0.7,0.1-1,0.2c-0.3,0.1-0.6,0.3-0.9,0.5s-0.5,0.5-0.6,0.8
			s-0.2,0.6-0.2,1c0,0.3,0.1,0.6,0.2,1s0.3,0.7,0.5,1s0.4,0.7,0.7,1c0.2,0.3,0.5,0.6,0.6,0.8c0.6-0.3,1.1-0.7,1.7-1.1
			C264.7,182.7,265.1,182.2,265.4,181.6z"/>
		<path class="st1" d="M319.3,186.8c-0.3-1.1-0.8-1.9-1.5-2.5s-1.7-0.9-2.8-0.9c-0.9,0-1.6,0.2-2.2,0.5c-0.6,0.4-1.1,0.8-1.5,1.4
			c-0.4,0.6-0.7,1.2-0.9,2c-0.2,0.7-0.3,1.5-0.3,2.2c0,0.8,0.1,1.5,0.3,2.2c0.2,0.7,0.5,1.4,0.9,2s0.9,1,1.5,1.4
			c0.6,0.3,1.4,0.5,2.2,0.5c1.3,0,2.3-0.3,3-1c0.8-0.7,1.2-1.6,1.4-2.9h1.8c-0.1,0.8-0.4,1.5-0.7,2.2c-0.3,0.7-0.7,1.2-1.3,1.7
			c-0.5,0.5-1.1,0.8-1.8,1.1c-0.7,0.3-1.5,0.4-2.4,0.4c-1.2,0-2.2-0.2-3-0.6c-0.8-0.4-1.5-0.9-2.1-1.6c-0.5-0.7-0.9-1.5-1.2-2.4
			c-0.3-0.9-0.4-1.9-0.4-3c0-1,0.1-2,0.4-2.9s0.7-1.7,1.3-2.4c0.6-0.7,1.3-1.3,2.1-1.7c0.8-0.4,1.8-0.6,2.9-0.6c1.7,0,3,0.4,4.1,1.2
			c1,0.8,1.7,2.1,1.9,3.8L319.3,186.8L319.3,186.8z"/>
		<path class="st1" d="M343.2,197.1c-0.9,0-1.8-0.2-2.6-0.5c-0.8-0.3-1.5-0.8-2.1-1.4c-0.6-0.6-1.1-1.4-1.4-2.4
			c-0.4-1-0.5-2.1-0.5-3.3c0-1.1,0.1-2.1,0.4-3s0.7-1.7,1.3-2.4c0.6-0.7,1.3-1.2,2.1-1.6c0.8-0.4,1.8-0.6,2.9-0.6s2.1,0.2,3,0.6
			c0.8,0.4,1.5,0.9,2.1,1.6c0.6,0.7,1,1.5,1.2,2.4c0.3,0.9,0.4,1.9,0.4,3c0,1.2-0.2,2.2-0.5,3.1c-0.3,0.9-0.8,1.7-1.4,2.4
			s-1.3,1.2-2.1,1.6C345.1,196.9,344.2,197.1,343.2,197.1z M348.1,189.4c0-0.9-0.1-1.7-0.3-2.4c-0.2-0.7-0.5-1.4-0.9-1.9
			s-0.9-1-1.5-1.3s-1.4-0.5-2.3-0.5s-1.6,0.2-2.3,0.5c-0.6,0.3-1.1,0.8-1.5,1.4c-0.4,0.6-0.7,1.2-0.9,2c-0.2,0.7-0.3,1.5-0.3,2.3
			c0,0.9,0.1,1.7,0.3,2.5c0.2,0.8,0.5,1.4,0.9,1.9s0.9,1,1.5,1.3s1.3,0.4,2.1,0.4c0.9,0,1.6-0.2,2.3-0.5c0.6-0.3,1.1-0.8,1.5-1.4
			c0.4-0.6,0.7-1.2,0.9-2C348,191,348.1,190.2,348.1,189.4z"/>
		<path class="st1" d="M367.5,196.7h-1.7v-14.5h1.7v2c0.7-0.7,1.4-1.3,2.1-1.7s1.6-0.7,2.6-0.7c0.9,0,1.7,0.2,2.5,0.5
			s1.4,0.8,1.9,1.6c0.4,0.5,0.6,1.1,0.6,1.6c0.1,0.6,0.1,1.1,0.1,1.7v9.5h-1.7v-9.5c0-1.3-0.3-2.3-0.9-2.9c-0.6-0.7-1.5-1-2.9-1
			c-0.5,0-1,0.1-1.4,0.2c-0.4,0.2-0.8,0.4-1.2,0.6c-0.3,0.3-0.6,0.6-0.9,0.9c-0.2,0.3-0.4,0.7-0.6,1.1c-0.2,0.5-0.3,0.9-0.3,1.3
			c0,0.4-0.1,0.9-0.1,1.4v7.9H367.5z"/>
		<path class="st1" d="M395.3,192.2c0.3,1.3,0.7,2.1,1.4,2.6c0.7,0.5,1.7,0.8,2.9,0.8c0.6,0,1.1-0.1,1.6-0.2
			c0.4-0.1,0.8-0.4,1.1-0.6c0.3-0.3,0.5-0.5,0.7-0.9c0.1-0.3,0.2-0.7,0.2-1c0-0.7-0.2-1.2-0.7-1.6c-0.5-0.3-1-0.6-1.7-0.8
			s-1.4-0.4-2.2-0.5c-0.8-0.1-1.5-0.3-2.2-0.6s-1.3-0.7-1.7-1.2c-0.5-0.5-0.7-1.3-0.7-2.2c0-1.2,0.4-2.2,1.3-3s2.1-1.2,3.8-1.2
			c1.6,0,2.8,0.3,3.8,1.1c1,0.7,1.6,1.9,1.8,3.5H403c-0.2-1.1-0.6-1.9-1.3-2.4c-0.7-0.5-1.6-0.7-2.6-0.7c-1.1,0-1.9,0.2-2.4,0.7
			c-0.6,0.5-0.8,1.1-0.8,1.8s0.2,1.2,0.7,1.5s1,0.6,1.7,0.8s1.4,0.4,2.2,0.6c0.8,0.2,1.5,0.4,2.2,0.7s1.3,0.7,1.7,1.2
			c0.5,0.5,0.7,1.2,0.7,2.2c0,0.7-0.2,1.3-0.4,1.8c-0.3,0.5-0.7,1-1.2,1.3c-0.5,0.4-1.1,0.6-1.9,0.8c-0.7,0.2-1.5,0.3-2.4,0.3
			s-1.6-0.1-2.3-0.4c-0.7-0.3-1.2-0.6-1.7-1s-0.8-1-1.1-1.6c-0.3-0.6-0.4-1.2-0.4-1.9L395.3,192.2L395.3,192.2z"/>
		<path class="st1" d="M431,182.2h1.7v14.5H431v-2c-0.2,0.3-0.5,0.5-0.8,0.8s-0.6,0.5-1,0.8c-0.4,0.2-0.8,0.4-1.3,0.6
			c-0.5,0.2-1,0.2-1.7,0.2c-1,0-1.8-0.1-2.4-0.4c-0.7-0.3-1.2-0.6-1.6-1.1s-0.7-1-0.9-1.7c-0.2-0.6-0.3-1.3-0.3-2.1v-9.5h1.7v9.5
			c0,1.2,0.3,2.2,0.9,2.9s1.5,1,2.9,1c0.7,0,1.3-0.1,1.9-0.4c0.6-0.3,1-0.6,1.4-1.1s0.7-1.1,0.9-1.7c0.2-0.7,0.3-1.4,0.3-2.2V182.2z
			"/>
		<path class="st1" d="M449.8,196.7v-20.1h1.7v20.1H449.8z"/>
		<path class="st1" d="M473.8,196.7c-0.2,0-0.5,0.1-0.8,0.2c-0.3,0.1-0.7,0.1-1.1,0.1c-0.8,0-1.5-0.2-1.9-0.6
			c-0.4-0.4-0.7-1.2-0.7-2.3v-10.6h-2v-1.4h2v-4h1.7v4h2.7v1.4H471v9.9c0,0.4,0,0.7,0,0.9c0,0.3,0.1,0.5,0.2,0.6
			c0.1,0.2,0.2,0.3,0.4,0.4c0.2,0.1,0.5,0.1,0.8,0.1c0.2,0,0.5,0,0.7-0.1c0.2,0,0.5-0.1,0.7-0.1L473.8,196.7L473.8,196.7z"/>
		<path class="st1" d="M495.1,197.1c-0.9,0-1.8-0.2-2.6-0.5c-0.8-0.3-1.5-0.8-2.1-1.4c-0.6-0.6-1.1-1.4-1.4-2.4
			c-0.4-1-0.5-2.1-0.5-3.3c0-1.1,0.1-2.1,0.4-3s0.7-1.7,1.3-2.4c0.6-0.7,1.3-1.2,2.1-1.6c0.8-0.4,1.8-0.6,2.9-0.6s2.1,0.2,3,0.6
			c0.8,0.4,1.5,0.9,2.1,1.6c0.6,0.7,1,1.5,1.2,2.4c0.3,0.9,0.4,1.9,0.4,3c0,1.2-0.2,2.2-0.5,3.1c-0.3,0.9-0.8,1.7-1.4,2.4
			s-1.3,1.2-2.1,1.6C497,196.9,496.1,197.1,495.1,197.1z M500,189.4c0-0.9-0.1-1.7-0.3-2.4c-0.2-0.7-0.5-1.4-0.9-1.9s-0.9-1-1.5-1.3
			s-1.4-0.5-2.3-0.5s-1.6,0.2-2.3,0.5c-0.6,0.3-1.1,0.8-1.5,1.4c-0.4,0.6-0.7,1.2-0.9,2c-0.2,0.7-0.3,1.5-0.3,2.3
			c0,0.9,0.1,1.7,0.3,2.5c0.2,0.8,0.5,1.4,0.9,1.9s0.9,1,1.5,1.3s1.3,0.4,2.1,0.4c0.9,0,1.6-0.2,2.3-0.5c0.6-0.3,1.1-0.8,1.5-1.4
			c0.4-0.6,0.7-1.2,0.9-2C499.9,191,500,190.2,500,189.4z"/>
		<path class="st1" d="M519.5,196.7h-1.7v-14.5h1.7v2.7h0.1c0.5-1.2,1.1-2,1.8-2.4c0.7-0.5,1.7-0.7,2.9-0.7v1.8
			c-1,0-1.7,0.1-2.3,0.4c-0.6,0.3-1.1,0.7-1.5,1.3c-0.4,0.5-0.6,1.2-0.8,1.9c-0.1,0.7-0.2,1.5-0.2,2.3V196.7z"/>
		<path class="st1" d="M540.1,179v-2.5h1.8v2.5H540.1z M540.2,196.7v-14.5h1.7v14.5H540.2z"/>
		<path class="st1" d="M565.7,188.2c0.3,0,0.7-0.1,1.1-0.2c0.4-0.1,0.8-0.2,1.1-0.3s0.5-0.3,0.5-0.7c0.1-0.3,0.1-0.6,0.1-0.9
			c0-0.9-0.3-1.6-0.8-2.1c-0.6-0.5-1.5-0.8-2.8-0.8c-0.6,0-1.1,0.1-1.6,0.2c-0.5,0.1-0.9,0.3-1.3,0.5c-0.4,0.3-0.7,0.6-0.9,1
			s-0.4,0.9-0.5,1.6H559c0.1-0.9,0.3-1.6,0.6-2.2c0.3-0.6,0.8-1.1,1.3-1.5s1.1-0.7,1.8-0.8c0.7-0.2,1.4-0.3,2.2-0.3
			c0.7,0,1.4,0.1,2.1,0.2s1.2,0.4,1.7,0.8c0.5,0.3,0.9,0.8,1.1,1.4c0.3,0.6,0.4,1.3,0.4,2.1v7.9c0,0.7,0.1,1.1,0.4,1.2
			c0.2,0.2,0.7,0.1,1.4-0.1v1.3c-0.1,0-0.3,0.1-0.6,0.2c-0.3,0.1-0.5,0.1-0.7,0.1c-0.3,0-0.5,0-0.8-0.1c-0.3,0-0.5-0.1-0.7-0.3
			c-0.2-0.1-0.3-0.3-0.4-0.5c-0.1-0.2-0.2-0.4-0.2-0.6c0-0.2-0.1-0.5-0.1-0.7c-0.7,0.8-1.5,1.4-2.4,1.8c-0.9,0.4-1.9,0.6-3,0.6
			c-0.6,0-1.2-0.1-1.8-0.3s-1.1-0.4-1.6-0.8c-0.4-0.4-0.8-0.8-1.1-1.3s-0.4-1.1-0.4-1.8c0-2.5,1.7-3.9,5.1-4.4L565.7,188.2z
			 M568.5,189.1c-0.7,0.3-1.4,0.5-2.2,0.6c-0.7,0.1-1.5,0.2-2.2,0.2c-1.3,0.1-2.3,0.4-3,0.9S560,192,560,193c0,0.4,0.1,0.8,0.3,1.2
			c0.2,0.3,0.4,0.6,0.7,0.8s0.6,0.4,1,0.5s0.8,0.2,1.2,0.2c0.7,0,1.3-0.1,2-0.3c0.6-0.2,1.2-0.4,1.7-0.8c0.5-0.3,0.9-0.8,1.2-1.3
			s0.4-1.2,0.4-1.9L568.5,189.1L568.5,189.1z"/>
	</g>
</g>
</svg>
